<svg width="auto" height="auto" viewBox="0 0 1562 254" fill="none" xmlns="http://www.w3.org/2000/svg">
<path d="M132.226 96.5C174.726 104.5 188.78 131.31 232.226 140.5C284.226 151.5 350.726 65 258.226 0C322.226 8 378.726 66.5 369.226 141C354.726 215 298.726 253 231.726 254C155.226 246.5 147.226 217 108.726 193.5C59.8277 170.086 36.4958 175.59 0.725586 199C7.22559 148 44.7289 87.9157 132.226 96.5Z" fill="url(#paint0_linear_1_14)"/>
<path d="M538.535 156.765C538.535 163.326 536.945 169.029 533.765 173.874C530.586 178.719 525.943 182.453 519.836 185.078C513.78 187.702 506.412 189.014 497.731 189.014C493.895 189.014 490.136 188.762 486.451 188.257C482.818 187.752 479.31 187.021 475.929 186.062C472.598 185.052 469.418 183.816 466.39 182.352V160.55C471.639 162.871 477.089 164.966 482.742 166.833C488.394 168.701 493.996 169.634 499.548 169.634C503.383 169.634 506.462 169.13 508.784 168.12C511.156 167.111 512.871 165.723 513.931 163.957C514.991 162.19 515.521 160.171 515.521 157.9C515.521 155.125 514.587 152.753 512.72 150.784C510.853 148.816 508.279 146.974 504.998 145.258C501.768 143.542 498.109 141.7 494.022 139.732C491.448 138.521 488.647 137.057 485.619 135.341C482.59 133.575 479.714 131.43 476.989 128.906C474.263 126.383 472.017 123.33 470.251 119.746C468.535 116.113 467.677 111.772 467.677 106.726C467.677 100.114 469.191 94.4618 472.219 89.7682C475.247 85.0747 479.562 81.4914 485.164 79.0185C490.817 76.4951 497.479 75.2334 505.15 75.2334C510.903 75.2334 516.379 75.9147 521.577 77.2774C526.826 78.5895 532.302 80.5073 538.005 83.0307L530.434 101.275C525.337 99.2058 520.77 97.6161 516.732 96.5058C512.695 95.345 508.582 94.7646 504.393 94.7646C501.466 94.7646 498.967 95.244 496.898 96.2029C494.829 97.1114 493.265 98.4235 492.205 100.139C491.145 101.805 490.615 103.748 490.615 105.969C490.615 108.593 491.372 110.813 492.886 112.63C494.451 114.397 496.772 116.113 499.851 117.778C502.98 119.444 506.866 121.387 511.509 123.607C517.161 126.282 521.981 129.083 525.968 132.01C530.005 134.887 533.109 138.293 535.279 142.23C537.449 146.116 538.535 150.961 538.535 156.765ZM592.435 170.618C594.958 170.618 597.406 170.366 599.778 169.861C602.2 169.357 604.597 168.726 606.969 167.969V185.153C604.497 186.264 601.418 187.172 597.734 187.879C594.1 188.636 590.113 189.014 585.773 189.014C580.726 189.014 576.184 188.207 572.146 186.592C568.159 184.926 565.005 182.075 562.684 178.037C560.413 173.949 559.277 168.272 559.277 161.004V120.201H548.224V110.435L560.942 102.713L567.604 84.8476H582.366V102.865H606.061V120.201H582.366V161.004C582.366 164.234 583.275 166.657 585.092 168.272C586.959 169.836 589.407 170.618 592.435 170.618ZM701.825 102.865V187.5H684.11L681.006 176.675H679.795C677.978 179.551 675.707 181.898 672.982 183.715C670.257 185.532 667.254 186.869 663.973 187.727C660.693 188.585 657.286 189.014 653.754 189.014C647.697 189.014 642.423 187.954 637.932 185.835C633.44 183.664 629.933 180.308 627.409 175.766C624.936 171.224 623.7 165.319 623.7 158.052V102.865H646.789V152.298C646.789 158.355 647.874 162.922 650.044 166.001C652.214 169.079 655.671 170.618 660.415 170.618C665.109 170.618 668.793 169.559 671.468 167.439C674.143 165.269 676.01 162.114 677.07 157.976C678.18 153.787 678.735 148.69 678.735 142.684V102.865H701.825ZM752.848 189.014C743.41 189.014 735.714 185.33 729.759 177.962C723.854 170.543 720.902 159.667 720.902 145.334C720.902 130.849 723.904 119.898 729.91 112.479C735.916 105.01 743.764 101.275 753.454 101.275C757.491 101.275 761.049 101.83 764.128 102.94C767.206 104.051 769.856 105.54 772.076 107.407C774.347 109.274 776.265 111.369 777.83 113.69H778.587C778.284 112.075 777.905 109.703 777.451 106.574C777.047 103.395 776.846 100.139 776.846 96.8086V69.7071H800.011V187.5H782.296L777.83 176.523H776.846C775.382 178.845 773.54 180.964 771.319 182.882C769.149 184.749 766.55 186.238 763.522 187.349C760.494 188.459 756.936 189.014 752.848 189.014ZM760.948 170.618C767.257 170.618 771.698 168.751 774.272 165.016C776.896 161.231 778.284 155.554 778.435 147.983V145.485C778.435 137.259 777.174 130.976 774.65 126.635C772.127 122.245 767.433 120.049 760.57 120.049C755.472 120.049 751.485 122.245 748.609 126.635C745.732 131.026 744.294 137.36 744.294 145.637C744.294 153.913 745.732 160.146 748.609 164.335C751.536 168.524 755.649 170.618 760.948 170.618ZM859.058 101.275C866.881 101.275 873.618 102.789 879.271 105.817C884.923 108.795 889.289 113.135 892.367 118.838C895.446 124.541 896.985 131.505 896.985 139.732V150.936H842.404C842.656 157.446 844.599 162.569 848.233 166.303C851.917 169.988 857.014 171.83 863.525 171.83C868.925 171.83 873.871 171.274 878.362 170.164C882.854 169.054 887.472 167.388 892.216 165.168V183.034C888.027 185.103 883.636 186.617 879.044 187.576C874.502 188.535 868.975 189.014 862.465 189.014C853.986 189.014 846.467 187.45 839.906 184.321C833.395 181.191 828.273 176.422 824.538 170.013C820.854 163.603 819.012 155.528 819.012 145.788C819.012 135.896 820.677 127.67 824.008 121.109C827.39 114.498 832.083 109.552 838.089 106.271C844.095 102.94 851.084 101.275 859.058 101.275ZM859.21 117.702C854.718 117.702 850.983 119.141 848.006 122.017C845.079 124.894 843.388 129.411 842.934 135.568H875.334C875.284 132.136 874.653 129.083 873.442 126.408C872.281 123.733 870.515 121.614 868.143 120.049C865.821 118.485 862.844 117.702 859.21 117.702ZM963.83 101.275C972.864 101.275 980.132 103.748 985.633 108.694C991.134 113.589 993.884 121.462 993.884 132.313V187.5H970.795V138.066C970.795 132.01 969.685 127.443 967.464 124.364C965.294 121.286 961.862 119.746 957.169 119.746C950.103 119.746 945.283 122.144 942.709 126.938C940.136 131.733 938.849 138.647 938.849 147.681V187.5H915.759V102.865H933.398L936.502 113.69H937.789C939.606 110.763 941.852 108.391 944.526 106.574C947.252 104.757 950.254 103.42 953.535 102.562C956.866 101.704 960.298 101.275 963.83 101.275ZM1053.31 170.618C1055.83 170.618 1058.28 170.366 1060.65 169.861C1063.08 169.357 1065.47 168.726 1067.85 167.969V185.153C1065.37 186.264 1062.29 187.172 1058.61 187.879C1054.98 188.636 1050.99 189.014 1046.65 189.014C1041.6 189.014 1037.06 188.207 1033.02 186.592C1029.04 184.926 1025.88 182.075 1023.56 178.037C1021.29 173.949 1020.15 168.272 1020.15 161.004V120.201H1009.1V110.435L1021.82 102.713L1028.48 84.8476H1043.24V102.865H1066.94V120.201H1043.24V161.004C1043.24 164.234 1044.15 166.657 1045.97 168.272C1047.83 169.836 1050.28 170.618 1053.31 170.618ZM1192.45 156.765C1192.45 163.326 1190.86 169.029 1187.68 173.874C1184.5 178.719 1179.86 182.453 1173.75 185.078C1167.7 187.702 1160.33 189.014 1151.65 189.014C1147.81 189.014 1144.05 188.762 1140.37 188.257C1136.73 187.752 1133.23 187.021 1129.85 186.062C1126.51 185.052 1123.34 183.816 1120.31 182.352V160.55C1125.56 162.871 1131.01 164.966 1136.66 166.833C1142.31 168.701 1147.91 169.634 1153.46 169.634C1157.3 169.634 1160.38 169.13 1162.7 168.12C1165.07 167.111 1166.79 165.723 1167.85 163.957C1168.91 162.19 1169.44 160.171 1169.44 157.9C1169.44 155.125 1168.5 152.753 1166.64 150.784C1164.77 148.816 1162.2 146.974 1158.92 145.258C1155.69 143.542 1152.03 141.7 1147.94 139.732C1145.36 138.521 1142.56 137.057 1139.54 135.341C1136.51 133.575 1133.63 131.43 1130.91 128.906C1128.18 126.383 1125.93 123.33 1124.17 119.746C1122.45 116.113 1121.59 111.772 1121.59 106.726C1121.59 100.114 1123.11 94.4618 1126.14 89.7682C1129.16 85.0747 1133.48 81.4914 1139.08 79.0185C1144.73 76.4951 1151.4 75.2334 1159.07 75.2334C1164.82 75.2334 1170.3 75.9147 1175.49 77.2774C1180.74 78.5895 1186.22 80.5073 1191.92 83.0307L1184.35 101.275C1179.25 99.2058 1174.69 97.6161 1170.65 96.5058C1166.61 95.345 1162.5 94.7646 1158.31 94.7646C1155.38 94.7646 1152.88 95.244 1150.82 96.2029C1148.75 97.1114 1147.18 98.4235 1146.12 100.139C1145.06 101.805 1144.53 103.748 1144.53 105.969C1144.53 108.593 1145.29 110.813 1146.8 112.63C1148.37 114.397 1150.69 116.113 1153.77 117.778C1156.9 119.444 1160.78 121.387 1165.43 123.607C1171.08 126.282 1175.9 129.083 1179.89 132.01C1183.92 134.887 1187.03 138.293 1189.2 142.23C1191.37 146.116 1192.45 150.961 1192.45 156.765ZM1257.78 101.275C1267.32 101.275 1275.02 104.984 1280.87 112.403C1286.78 119.822 1289.73 130.698 1289.73 145.031C1289.73 154.62 1288.34 162.695 1285.57 169.256C1282.79 175.766 1278.95 180.687 1274.06 184.018C1269.16 187.349 1263.54 189.014 1257.18 189.014C1253.09 189.014 1249.58 188.509 1246.65 187.5C1243.73 186.44 1241.23 185.103 1239.16 183.488C1237.09 181.822 1235.3 180.056 1233.79 178.189H1232.57C1232.98 180.207 1233.28 182.277 1233.48 184.396C1233.68 186.516 1233.79 188.585 1233.79 190.604V224.746H1210.7V102.865H1229.47L1232.73 113.842H1233.79C1235.3 111.571 1237.14 109.476 1239.31 107.558C1241.48 105.641 1244.08 104.126 1247.11 103.016C1250.19 101.855 1253.75 101.275 1257.78 101.275ZM1250.36 119.746C1246.33 119.746 1243.12 120.579 1240.75 122.245C1238.38 123.91 1236.64 126.408 1235.53 129.739C1234.47 133.07 1233.89 137.284 1233.79 142.381V144.88C1233.79 150.33 1234.29 154.948 1235.3 158.733C1236.36 162.518 1238.1 165.395 1240.52 167.363C1243 169.331 1246.38 170.316 1250.67 170.316C1254.2 170.316 1257.1 169.331 1259.37 167.363C1261.64 165.395 1263.33 162.518 1264.44 158.733C1265.61 154.898 1266.19 150.229 1266.19 144.728C1266.19 136.451 1264.9 130.219 1262.32 126.03C1259.75 121.841 1255.76 119.746 1250.36 119.746ZM1343.48 101.124C1354.83 101.124 1363.54 103.597 1369.6 108.542C1375.65 113.488 1378.68 121.008 1378.68 131.102V187.5H1362.55L1358.09 175.993H1357.48C1355.06 179.021 1352.59 181.494 1350.06 183.412C1347.54 185.33 1344.64 186.743 1341.36 187.651C1338.08 188.56 1334.09 189.014 1329.4 189.014C1324.4 189.014 1319.91 188.055 1315.92 186.137C1311.99 184.22 1308.88 181.292 1306.61 177.356C1304.34 173.369 1303.2 168.322 1303.2 162.215C1303.2 153.232 1306.36 146.621 1312.67 142.381C1318.98 138.092 1328.44 135.72 1341.06 135.265L1355.74 134.811V131.102C1355.74 126.661 1354.58 123.405 1352.26 121.336C1349.94 119.267 1346.71 118.232 1342.57 118.232C1338.48 118.232 1334.47 118.813 1330.53 119.973C1326.6 121.134 1322.66 122.598 1318.72 124.364L1311.08 108.77C1315.57 106.398 1320.59 104.53 1326.14 103.168C1331.74 101.805 1337.52 101.124 1343.48 101.124ZM1355.74 148.286L1346.81 148.589C1339.34 148.791 1334.14 150.128 1331.21 152.601C1328.34 155.074 1326.9 158.329 1326.9 162.367C1326.9 165.9 1327.93 168.423 1330 169.937C1332.07 171.401 1334.77 172.132 1338.1 172.132C1343.05 172.132 1347.21 170.669 1350.59 167.742C1354.03 164.815 1355.74 160.651 1355.74 155.251V148.286ZM1436.89 189.014C1428.52 189.014 1421.38 187.5 1415.47 184.472C1409.57 181.393 1405.07 176.649 1402 170.24C1398.92 163.83 1397.38 155.629 1397.38 145.637C1397.38 135.291 1399.12 126.862 1402.6 120.352C1406.13 113.791 1411 108.971 1417.21 105.893C1423.47 102.814 1430.71 101.275 1438.94 101.275C1444.79 101.275 1449.84 101.855 1454.08 103.016C1458.37 104.126 1462.1 105.464 1465.28 107.028L1458.47 124.894C1454.84 123.431 1451.45 122.245 1448.33 121.336C1445.2 120.377 1442.07 119.898 1438.94 119.898C1434.9 119.898 1431.54 120.857 1428.87 122.774C1426.2 124.642 1424.2 127.468 1422.89 131.253C1421.58 135.038 1420.92 139.782 1420.92 145.485C1420.92 151.087 1421.63 155.73 1423.04 159.414C1424.45 163.099 1426.5 165.849 1429.17 167.666C1431.85 169.432 1435.1 170.316 1438.94 170.316C1443.73 170.316 1448 169.685 1451.73 168.423C1455.47 167.111 1459.1 165.294 1462.63 162.972V182.731C1459.1 184.951 1455.39 186.541 1451.51 187.5C1447.67 188.509 1442.8 189.014 1436.89 189.014ZM1517.21 101.275C1525.04 101.275 1531.77 102.789 1537.43 105.817C1543.08 108.795 1547.45 113.135 1550.52 118.838C1553.6 124.541 1555.14 131.505 1555.14 139.732V150.936H1500.56C1500.81 157.446 1502.76 162.569 1506.39 166.303C1510.07 169.988 1515.17 171.83 1521.68 171.83C1527.08 171.83 1532.03 171.274 1536.52 170.164C1541.01 169.054 1545.63 167.388 1550.37 165.168V183.034C1546.18 185.103 1541.79 186.617 1537.2 187.576C1532.66 188.535 1527.13 189.014 1520.62 189.014C1512.14 189.014 1504.62 187.45 1498.06 184.321C1491.55 181.191 1486.43 176.422 1482.69 170.013C1479.01 163.603 1477.17 155.528 1477.17 145.788C1477.17 135.896 1478.83 127.67 1482.16 121.109C1485.55 114.498 1490.24 109.552 1496.25 106.271C1502.25 102.94 1509.24 101.275 1517.21 101.275ZM1517.37 117.702C1512.87 117.702 1509.14 119.141 1506.16 122.017C1503.24 124.894 1501.54 129.411 1501.09 135.568H1533.49C1533.44 132.136 1532.81 129.083 1531.6 126.408C1530.44 123.733 1528.67 121.614 1526.3 120.049C1523.98 118.485 1521 117.702 1517.37 117.702Z" fill="#46475A"/>
<defs>
<linearGradient id="paint0_linear_1_14" x1="350.726" y1="244.5" x2="123.226" y2="55" gradientUnits="userSpaceOnUse">
<stop stop-color="#4242E6"/>
<stop offset="0.811877" stop-color="#1AAED3"/>
</linearGradient>
</defs>
</svg>
