<svg stroke="#5271FF" width="41" height="41" viewBox="0 0 41 41" fill="none" xmlns="http://www.w3.org/2000/svg">
<path d="M20.7514 18.461V31.7034M20.7514 18.461C20.7514 15.3708 20.7514 13.8257 20.15 12.6454C19.621 11.6072 18.7769 10.7631 17.7387 10.2341C16.5584 9.63269 15.0133 9.63269 11.9232 9.63269H10.5437C9.77119 9.63269 9.38492 9.63269 9.08985 9.78303C8.83029 9.91529 8.61927 10.1263 8.48701 10.3859C8.33667 10.6809 8.33667 11.0672 8.33667 11.8398V26.7375C8.33667 27.5101 8.33667 27.8963 8.48701 28.1914C8.61927 28.451 8.83029 28.6619 9.08985 28.7942C9.38492 28.9445 9.77119 28.9445 10.5437 28.9445H14.6084C15.3536 28.9445 15.7261 28.9445 16.0864 29.0088C16.4062 29.0658 16.7181 29.1601 17.0158 29.2902C17.3512 29.4366 17.6612 29.6432 18.2812 30.0566L20.7514 31.7034M20.7514 18.461C20.7514 15.3708 20.7514 13.8257 21.3528 12.6454C21.8819 11.6072 22.7259 10.7631 23.7641 10.2341C24.9444 9.63269 26.4895 9.63269 29.5797 9.63269H30.9591C31.7317 9.63269 32.118 9.63269 32.413 9.78303C32.6726 9.91529 32.8835 10.1263 33.0158 10.3859C33.1662 10.6809 33.1662 11.0672 33.1662 11.8398V26.7375C33.1662 27.5101 33.1662 27.8963 33.0158 28.1914C32.8835 28.451 32.6726 28.6619 32.413 28.7942C32.118 28.9445 31.7317 28.9445 30.9591 28.9445H26.8944C26.1492 28.9445 25.7766 28.9445 25.4165 29.0088C25.0966 29.0658 24.7847 29.1601 24.487 29.2902C24.1517 29.4366 23.8416 29.6432 23.2217 30.0566L20.7514 31.7034" stroke="auto" stroke-width="2.58053" stroke-linecap="round" stroke-linejoin="round"/>
</svg>
