<svg width="41" height="41" viewBox="0 0 41 41" fill="none" xmlns="http://www.w3.org/2000/svg">
<path fill-rule="evenodd" clip-rule="evenodd" d="M11.2459 13.4879C11.2459 12.0603 12.4032 10.903 13.8308 10.903H23.165C24.3546 10.903 25.319 10.3694 25.319 9.1798C25.319 7.99017 24.3546 7.74377 23.165 7.74377H12.3948C10.0155 7.74377 8.08667 9.67257 8.08667 12.0519V29.2842C8.08667 31.6636 10.0155 33.5923 12.3948 33.5923H29.6271C32.0065 33.5923 33.9352 31.6636 33.9352 29.2842V24.9761C33.9352 23.7865 33.6889 22.6785 32.4992 22.6785C31.3095 22.6785 30.7759 23.7865 30.7759 24.9761V27.8482C30.7759 29.2758 29.6187 30.433 28.1911 30.433H20.4365C20.4365 30.433 17.0321 30.433 13.8308 30.433C12.4032 30.433 11.2459 29.2758 11.2459 27.8482L11.2459 13.4879ZM36.6662 8.60497C35.8251 7.76377 34.7764 7.76377 33.9352 8.60497L23.9938 18.7415C22.9874 19.7677 21.337 19.7757 20.3206 18.7593L20.1662 18.605C19.325 17.7638 18.0074 17.2638 17.1662 18.105C16.325 18.9462 16.4925 20.2729 17.3337 21.1142L20.5648 24.3452C20.9688 24.7492 21.5167 24.9761 22.088 24.9761C22.6593 24.9761 23.2071 24.7492 23.6111 24.3452L36.5354 11.421C37.3765 10.5797 37.5074 9.44618 36.6662 8.60497Z" fill="#5271FF"/>
</svg>
