<svg width="41" height="41" viewBox="0 0 41 41" fill="none" xmlns="http://www.w3.org/2000/svg">
<path d="M29.5859 21.9347C28.8639 21.9347 28.2786 22.52 28.2786 23.242C28.2786 23.964 27.6934 24.5493 26.9714 24.5493H21.0512C19.9704 24.5493 19.0942 25.4255 19.0942 26.5063C19.0942 26.8111 19.1265 27.1075 19.1861 27.3942C19.2957 27.9206 18.9379 28.4903 18.4001 28.4903C18.2577 28.4903 18.1184 28.4486 17.9993 28.3704L11.2007 23.9015C10.1668 23.221 8.84748 23.164 7.75656 23.7516C7.22212 24.0394 6.77561 24.4666 6.46448 24.9878C6.15335 25.509 5.98921 26.1047 5.9895 26.7118C5.9895 27.8608 6.56633 28.918 7.53249 29.5396L13.7647 33.5529C15.2848 34.5318 17.0546 35.0523 18.8626 35.0523H27.6231C27.9852 35.0523 28.2786 35.3458 28.2786 35.7078C28.2786 36.0699 28.5721 36.3633 28.9342 36.3633H31.5562C33.3664 36.3633 34.8338 34.8959 34.8338 33.0857V25.2123C34.8338 23.4021 33.3664 21.9347 31.5562 21.9347H29.5859ZM19.4583 32.4299C17.7646 32.4299 16.1067 31.9422 14.6827 31.0252L8.9518 27.3348C8.84739 27.2679 8.76152 27.1757 8.70212 27.0668C8.64272 26.9579 8.61171 26.8358 8.61194 26.7118C8.61194 26.3131 8.88405 26.1227 9.00128 26.0593C9.11922 25.9973 9.42718 25.8736 9.76058 26.0919L15.8056 30.0659C16.844 30.7486 18.0596 31.1124 19.3024 31.1124H24.357C25.0811 31.1124 25.668 30.5254 25.668 29.8013V28.503C25.668 28.496 25.6623 28.4903 25.6553 28.4903H25.6433C25.6429 28.4903 25.6426 28.49 25.6426 28.4896C25.6426 28.4892 25.6423 28.4888 25.6419 28.4888H23.6995C22.5128 28.4888 23.0802 27.1714 24.267 27.1714H25.6497C27.1018 27.1714 28.279 28.3485 28.279 29.8006C28.279 31.2527 27.1018 32.4299 25.6497 32.4299H19.4583ZM32.2118 33.0854C32.2118 33.4474 31.9183 33.7409 31.5562 33.7409C31.1942 33.7409 30.9007 33.4474 30.9007 33.0854V25.2123C30.9007 24.8503 31.1942 24.5568 31.5562 24.5568C31.9183 24.5568 32.2118 24.8503 32.2118 25.2123V33.0854ZM9.24876 20.947C9.87709 20.5871 10.084 19.788 9.82585 19.1115C9.4571 18.1453 9.26549 17.1121 9.26549 16.0668C9.26549 11.3679 13.0875 7.5448 17.7849 7.5448C22.4835 7.5448 26.3051 11.3679 26.3051 16.0668C26.3051 17.1112 26.1136 18.1441 25.7451 19.1102C25.487 19.7867 25.694 20.5856 26.3222 20.9455C26.9505 21.3055 27.7595 21.0901 28.0423 20.4235C28.624 19.0524 28.9272 17.5684 28.9272 16.0668C28.9272 9.92167 23.9286 4.92236 17.7849 4.92236C11.6413 4.92236 6.64341 9.92167 6.64341 16.0668C6.64341 17.5696 6.94707 19.0542 7.52902 20.4252C7.81186 21.0915 8.62062 21.3068 9.24876 20.947Z" fill="#5271FF"/>
<path d="M14.2977 15.0427C13.8863 14.6742 13.254 14.7091 12.8855 15.1206L12.3142 15.7587C11.9458 16.1701 11.9806 16.8022 12.392 17.1707L16.2322 20.6104C16.6479 20.9828 17.288 20.9428 17.6541 20.5216L22.9868 14.3872C23.3492 13.9704 23.305 13.3388 22.8882 12.9764L22.2407 12.4136C21.8238 12.0513 21.1922 12.0955 20.8299 12.5124L17.4002 16.4589C17.0341 16.8802 16.394 16.9202 15.9782 16.5479L14.2977 15.0427Z" fill="#5271FF"/>
</svg>
