<svg stroke="auto" class="selected" width="41" height="41" viewBox="0 0 41 41" fill="none" xmlns="http://www.w3.org/2000/svg">
<path fill-rule="evenodd" clip-rule="evenodd" d="M16.6203 17.4688H12.0827C11.4169 17.4634 10.7762 17.7226 10.3015 18.1895C9.82678 18.6564 9.557 19.2927 9.55151 19.9584V29.3808C9.56383 30.7668 10.6969 31.8805 12.0827 31.8688H16.6203C17.2861 31.8744 17.9269 31.6152 18.4016 31.1484C18.8763 30.6815 19.1461 30.0452 19.1515 29.3792V19.9584C19.1461 19.2927 18.8763 18.6564 18.4016 18.1895C17.9269 17.7226 17.2861 17.4634 16.6203 17.4688Z" stroke="auto" stroke-width="2.18489" stroke-linecap="round" stroke-linejoin="round"/>
<path fill-rule="evenodd" clip-rule="evenodd" d="M16.6203 7.86895H12.0827C10.7247 7.83128 9.59246 8.89986 9.55151 10.2577V11.8801C9.59246 13.2381 10.7247 14.3066 12.0827 14.2689H16.6203C17.9782 14.3066 19.1106 13.2381 19.1515 11.8801V10.2577C19.1106 8.89986 17.9782 7.83128 16.6203 7.86895Z" stroke="auto" stroke-width="2.18489" stroke-linecap="round" stroke-linejoin="round"/>
<path fill-rule="evenodd" clip-rule="evenodd" d="M24.8828 22.2691H29.4188C30.0848 22.2751 30.726 22.016 31.201 21.5491C31.676 21.0821 31.9461 20.4456 31.9516 19.7795V10.3587C31.9461 9.69288 31.6764 9.05653 31.2016 8.58964C30.7269 8.12274 30.0861 7.86354 29.4204 7.86907H24.8828C24.217 7.86354 23.5762 8.12274 23.1015 8.58964C22.6268 9.05653 22.357 9.69288 22.3516 10.3587V19.7795C22.357 20.4453 22.6268 21.0816 23.1015 21.5485C23.5762 22.0154 24.217 22.2746 24.8828 22.2691Z" stroke="auto" stroke-width="2.18489" stroke-linecap="round" stroke-linejoin="round"/>
<path fill-rule="evenodd" clip-rule="evenodd" d="M24.8828 31.869H29.4188C30.7773 31.9075 31.9106 30.8387 31.9516 29.4802V27.8578C31.9106 26.4999 30.7783 25.4314 29.4204 25.469H24.8828C23.5248 25.4314 22.3925 26.4999 22.3516 27.8578V29.4786C22.3916 30.8371 23.5242 31.9066 24.8828 31.869Z" stroke="auto" stroke-width="2.18489" stroke-linecap="round" stroke-linejoin="round"/>
</svg>
