<svg width="1562" height="414" viewBox="0 0 1562 414" fill="none" xmlns="http://www.w3.org/2000/svg">
<path d="M132.226 176.5C174.726 184.5 188.78 211.31 232.226 220.5C284.226 231.5 350.726 145 258.226 80C322.226 88 378.726 146.5 369.226 221C354.726 295 298.726 333 231.726 334C155.226 326.5 147.226 297 108.726 273.5C59.8277 250.086 36.4958 255.59 0.725586 279C7.22559 228 44.7289 167.916 132.226 176.5Z" fill="url(#paint0_linear_1_14)"/>
<path d="M538.535 236.765C538.535 243.326 536.945 249.029 533.765 253.874C530.586 258.719 525.943 262.453 519.836 265.078C513.78 267.702 506.412 269.014 497.731 269.014C493.895 269.014 490.136 268.762 486.451 268.257C482.818 267.752 479.31 267.021 475.929 266.062C472.598 265.052 469.418 263.816 466.39 262.352V240.55C471.639 242.871 477.089 244.966 482.742 246.833C488.394 248.701 493.996 249.634 499.548 249.634C503.383 249.634 506.462 249.13 508.784 248.12C511.156 247.111 512.871 245.723 513.931 243.957C514.991 242.19 515.521 240.171 515.521 237.9C515.521 235.125 514.587 232.753 512.72 230.784C510.853 228.816 508.279 226.974 504.998 225.258C501.768 223.542 498.109 221.7 494.022 219.732C491.448 218.521 488.647 217.057 485.619 215.341C482.59 213.575 479.714 211.43 476.989 208.906C474.263 206.383 472.017 203.33 470.251 199.746C468.535 196.113 467.677 191.772 467.677 186.726C467.677 180.114 469.191 174.462 472.219 169.768C475.247 165.075 479.562 161.491 485.164 159.019C490.817 156.495 497.479 155.233 505.15 155.233C510.903 155.233 516.379 155.915 521.577 157.277C526.826 158.59 532.302 160.507 538.005 163.031L530.434 181.275C525.337 179.206 520.77 177.616 516.732 176.506C512.695 175.345 508.582 174.765 504.393 174.765C501.466 174.765 498.967 175.244 496.898 176.203C494.829 177.111 493.265 178.424 492.205 180.139C491.145 181.805 490.615 183.748 490.615 185.969C490.615 188.593 491.372 190.813 492.886 192.63C494.451 194.397 496.772 196.113 499.851 197.778C502.98 199.444 506.866 201.387 511.509 203.607C517.161 206.282 521.981 209.083 525.968 212.01C530.005 214.887 533.109 218.293 535.279 222.23C537.449 226.116 538.535 230.961 538.535 236.765ZM592.435 250.618C594.958 250.618 597.406 250.366 599.778 249.861C602.2 249.357 604.597 248.726 606.969 247.969V265.153C604.497 266.264 601.418 267.172 597.734 267.879C594.1 268.636 590.113 269.014 585.773 269.014C580.726 269.014 576.184 268.207 572.146 266.592C568.159 264.926 565.005 262.075 562.684 258.037C560.413 253.949 559.277 248.272 559.277 241.004V200.201H548.224V190.435L560.942 182.713L567.604 164.848H582.366V182.865H606.061V200.201H582.366V241.004C582.366 244.234 583.275 246.657 585.092 248.272C586.959 249.836 589.407 250.618 592.435 250.618ZM701.825 182.865V267.5H684.11L681.006 256.675H679.795C677.978 259.551 675.707 261.898 672.982 263.715C670.257 265.532 667.254 266.869 663.973 267.727C660.693 268.585 657.286 269.014 653.754 269.014C647.697 269.014 642.423 267.954 637.932 265.835C633.44 263.664 629.933 260.308 627.409 255.766C624.936 251.224 623.7 245.319 623.7 238.052V182.865H646.789V232.298C646.789 238.355 647.874 242.922 650.044 246.001C652.214 249.079 655.671 250.618 660.415 250.618C665.109 250.618 668.793 249.559 671.468 247.439C674.143 245.269 676.01 242.114 677.07 237.976C678.18 233.787 678.735 228.69 678.735 222.684V182.865H701.825ZM752.848 269.014C743.41 269.014 735.714 265.33 729.759 257.962C723.854 250.543 720.902 239.667 720.902 225.334C720.902 210.849 723.904 199.898 729.91 192.479C735.916 185.01 743.764 181.275 753.454 181.275C757.491 181.275 761.049 181.83 764.128 182.94C767.206 184.051 769.856 185.54 772.076 187.407C774.347 189.274 776.265 191.369 777.83 193.69H778.587C778.284 192.075 777.905 189.703 777.451 186.574C777.047 183.395 776.846 180.139 776.846 176.809V149.707H800.011V267.5H782.296L777.83 256.523H776.846C775.382 258.845 773.54 260.964 771.319 262.882C769.149 264.749 766.55 266.238 763.522 267.349C760.494 268.459 756.936 269.014 752.848 269.014ZM760.948 250.618C767.257 250.618 771.698 248.751 774.272 245.016C776.896 241.231 778.284 235.554 778.435 227.983V225.485C778.435 217.259 777.174 210.976 774.65 206.635C772.127 202.245 767.433 200.049 760.57 200.049C755.472 200.049 751.485 202.245 748.609 206.635C745.732 211.026 744.294 217.36 744.294 225.637C744.294 233.913 745.732 240.146 748.609 244.335C751.536 248.524 755.649 250.618 760.948 250.618ZM859.058 181.275C866.881 181.275 873.618 182.789 879.271 185.817C884.923 188.795 889.289 193.135 892.367 198.838C895.446 204.541 896.985 211.505 896.985 219.732V230.936H842.404C842.656 237.446 844.599 242.569 848.233 246.303C851.917 249.988 857.014 251.83 863.525 251.83C868.925 251.83 873.871 251.274 878.362 250.164C882.854 249.054 887.472 247.388 892.216 245.168V263.034C888.027 265.103 883.636 266.617 879.044 267.576C874.502 268.535 868.975 269.014 862.465 269.014C853.986 269.014 846.467 267.45 839.906 264.321C833.395 261.191 828.273 256.422 824.538 250.013C820.854 243.603 819.012 235.528 819.012 225.788C819.012 215.896 820.677 207.67 824.008 201.109C827.39 194.498 832.083 189.552 838.089 186.271C844.095 182.94 851.084 181.275 859.058 181.275ZM859.21 197.702C854.718 197.702 850.983 199.141 848.006 202.017C845.079 204.894 843.388 209.411 842.934 215.568H875.334C875.284 212.136 874.653 209.083 873.442 206.408C872.281 203.733 870.515 201.614 868.143 200.049C865.821 198.485 862.844 197.702 859.21 197.702ZM963.83 181.275C972.864 181.275 980.132 183.748 985.633 188.694C991.134 193.589 993.884 201.462 993.884 212.313V267.5H970.795V218.066C970.795 212.01 969.685 207.443 967.464 204.364C965.294 201.286 961.862 199.746 957.169 199.746C950.103 199.746 945.283 202.144 942.709 206.938C940.136 211.733 938.849 218.647 938.849 227.681V267.5H915.759V182.865H933.398L936.502 193.69H937.789C939.606 190.763 941.852 188.391 944.526 186.574C947.252 184.757 950.254 183.42 953.535 182.562C956.866 181.704 960.298 181.275 963.83 181.275ZM1053.31 250.618C1055.83 250.618 1058.28 250.366 1060.65 249.861C1063.08 249.357 1065.47 248.726 1067.85 247.969V265.153C1065.37 266.264 1062.29 267.172 1058.61 267.879C1054.98 268.636 1050.99 269.014 1046.65 269.014C1041.6 269.014 1037.06 268.207 1033.02 266.592C1029.04 264.926 1025.88 262.075 1023.56 258.037C1021.29 253.949 1020.15 248.272 1020.15 241.004V200.201H1009.1V190.435L1021.82 182.713L1028.48 164.848H1043.24V182.865H1066.94V200.201H1043.24V241.004C1043.24 244.234 1044.15 246.657 1045.97 248.272C1047.83 249.836 1050.28 250.618 1053.31 250.618ZM1192.45 236.765C1192.45 243.326 1190.86 249.029 1187.68 253.874C1184.5 258.719 1179.86 262.453 1173.75 265.078C1167.7 267.702 1160.33 269.014 1151.65 269.014C1147.81 269.014 1144.05 268.762 1140.37 268.257C1136.73 267.752 1133.23 267.021 1129.85 266.062C1126.51 265.052 1123.34 263.816 1120.31 262.352V240.55C1125.56 242.871 1131.01 244.966 1136.66 246.833C1142.31 248.701 1147.91 249.634 1153.46 249.634C1157.3 249.634 1160.38 249.13 1162.7 248.12C1165.07 247.111 1166.79 245.723 1167.85 243.957C1168.91 242.19 1169.44 240.171 1169.44 237.9C1169.44 235.125 1168.5 232.753 1166.64 230.784C1164.77 228.816 1162.2 226.974 1158.92 225.258C1155.69 223.542 1152.03 221.7 1147.94 219.732C1145.36 218.521 1142.56 217.057 1139.54 215.341C1136.51 213.575 1133.63 211.43 1130.91 208.906C1128.18 206.383 1125.93 203.33 1124.17 199.746C1122.45 196.113 1121.59 191.772 1121.59 186.726C1121.59 180.114 1123.11 174.462 1126.14 169.768C1129.16 165.075 1133.48 161.491 1139.08 159.019C1144.73 156.495 1151.4 155.233 1159.07 155.233C1164.82 155.233 1170.3 155.915 1175.49 157.277C1180.74 158.59 1186.22 160.507 1191.92 163.031L1184.35 181.275C1179.25 179.206 1174.69 177.616 1170.65 176.506C1166.61 175.345 1162.5 174.765 1158.31 174.765C1155.38 174.765 1152.88 175.244 1150.82 176.203C1148.75 177.111 1147.18 178.424 1146.12 180.139C1145.06 181.805 1144.53 183.748 1144.53 185.969C1144.53 188.593 1145.29 190.813 1146.8 192.63C1148.37 194.397 1150.69 196.113 1153.77 197.778C1156.9 199.444 1160.78 201.387 1165.43 203.607C1171.08 206.282 1175.9 209.083 1179.89 212.01C1183.92 214.887 1187.03 218.293 1189.2 222.23C1191.37 226.116 1192.45 230.961 1192.45 236.765ZM1257.78 181.275C1267.32 181.275 1275.02 184.984 1280.87 192.403C1286.78 199.822 1289.73 210.698 1289.73 225.031C1289.73 234.62 1288.34 242.695 1285.57 249.256C1282.79 255.766 1278.95 260.687 1274.06 264.018C1269.16 267.349 1263.54 269.014 1257.18 269.014C1253.09 269.014 1249.58 268.509 1246.65 267.5C1243.73 266.44 1241.23 265.103 1239.16 263.488C1237.09 261.822 1235.3 260.056 1233.79 258.189H1232.57C1232.98 260.207 1233.28 262.277 1233.48 264.396C1233.68 266.516 1233.79 268.585 1233.79 270.604V304.746H1210.7V182.865H1229.47L1232.73 193.842H1233.79C1235.3 191.571 1237.14 189.476 1239.31 187.558C1241.48 185.641 1244.08 184.126 1247.11 183.016C1250.19 181.855 1253.75 181.275 1257.78 181.275ZM1250.36 199.746C1246.33 199.746 1243.12 200.579 1240.75 202.245C1238.38 203.91 1236.64 206.408 1235.53 209.739C1234.47 213.07 1233.89 217.284 1233.79 222.381V224.88C1233.79 230.33 1234.29 234.948 1235.3 238.733C1236.36 242.518 1238.1 245.395 1240.52 247.363C1243 249.331 1246.38 250.316 1250.67 250.316C1254.2 250.316 1257.1 249.331 1259.37 247.363C1261.64 245.395 1263.33 242.518 1264.44 238.733C1265.61 234.898 1266.19 230.229 1266.19 224.728C1266.19 216.451 1264.9 210.219 1262.32 206.03C1259.75 201.841 1255.76 199.746 1250.36 199.746ZM1343.48 181.124C1354.83 181.124 1363.54 183.597 1369.6 188.542C1375.65 193.488 1378.68 201.008 1378.68 211.102V267.5H1362.55L1358.09 255.993H1357.48C1355.06 259.021 1352.59 261.494 1350.06 263.412C1347.54 265.33 1344.64 266.743 1341.36 267.651C1338.08 268.56 1334.09 269.014 1329.4 269.014C1324.4 269.014 1319.91 268.055 1315.92 266.137C1311.99 264.22 1308.88 261.292 1306.61 257.356C1304.34 253.369 1303.2 248.322 1303.2 242.215C1303.2 233.232 1306.36 226.621 1312.67 222.381C1318.98 218.092 1328.44 215.72 1341.06 215.265L1355.74 214.811V211.102C1355.74 206.661 1354.58 203.405 1352.26 201.336C1349.94 199.267 1346.71 198.232 1342.57 198.232C1338.48 198.232 1334.47 198.813 1330.53 199.973C1326.6 201.134 1322.66 202.598 1318.72 204.364L1311.08 188.77C1315.57 186.398 1320.59 184.53 1326.14 183.168C1331.74 181.805 1337.52 181.124 1343.48 181.124ZM1355.74 228.286L1346.81 228.589C1339.34 228.791 1334.14 230.128 1331.21 232.601C1328.34 235.074 1326.9 238.329 1326.9 242.367C1326.9 245.9 1327.93 248.423 1330 249.937C1332.07 251.401 1334.77 252.132 1338.1 252.132C1343.05 252.132 1347.21 250.669 1350.59 247.742C1354.03 244.815 1355.74 240.651 1355.74 235.251V228.286ZM1436.89 269.014C1428.52 269.014 1421.38 267.5 1415.47 264.472C1409.57 261.393 1405.07 256.649 1402 250.24C1398.92 243.83 1397.38 235.629 1397.38 225.637C1397.38 215.291 1399.12 206.862 1402.6 200.352C1406.13 193.791 1411 188.971 1417.21 185.893C1423.47 182.814 1430.71 181.275 1438.94 181.275C1444.79 181.275 1449.84 181.855 1454.08 183.016C1458.37 184.126 1462.1 185.464 1465.28 187.028L1458.47 204.894C1454.84 203.431 1451.45 202.245 1448.33 201.336C1445.2 200.377 1442.07 199.898 1438.94 199.898C1434.9 199.898 1431.54 200.857 1428.87 202.774C1426.2 204.642 1424.2 207.468 1422.89 211.253C1421.58 215.038 1420.92 219.782 1420.92 225.485C1420.92 231.087 1421.63 235.73 1423.04 239.414C1424.45 243.099 1426.5 245.849 1429.17 247.666C1431.85 249.432 1435.1 250.316 1438.94 250.316C1443.73 250.316 1448 249.685 1451.73 248.423C1455.47 247.111 1459.1 245.294 1462.63 242.972V262.731C1459.1 264.951 1455.39 266.541 1451.51 267.5C1447.67 268.509 1442.8 269.014 1436.89 269.014ZM1517.21 181.275C1525.04 181.275 1531.77 182.789 1537.43 185.817C1543.08 188.795 1547.45 193.135 1550.52 198.838C1553.6 204.541 1555.14 211.505 1555.14 219.732V230.936H1500.56C1500.81 237.446 1502.76 242.569 1506.39 246.303C1510.07 249.988 1515.17 251.83 1521.68 251.83C1527.08 251.83 1532.03 251.274 1536.52 250.164C1541.01 249.054 1545.63 247.388 1550.37 245.168V263.034C1546.18 265.103 1541.79 266.617 1537.2 267.576C1532.66 268.535 1527.13 269.014 1520.62 269.014C1512.14 269.014 1504.62 267.45 1498.06 264.321C1491.55 261.191 1486.43 256.422 1482.69 250.013C1479.01 243.603 1477.17 235.528 1477.17 225.788C1477.17 215.896 1478.83 207.67 1482.16 201.109C1485.55 194.498 1490.24 189.552 1496.25 186.271C1502.25 182.94 1509.24 181.275 1517.21 181.275ZM1517.37 197.702C1512.87 197.702 1509.14 199.141 1506.16 202.017C1503.24 204.894 1501.54 209.411 1501.09 215.568H1533.49C1533.44 212.136 1532.81 209.083 1531.6 206.408C1530.44 203.733 1528.67 201.614 1526.3 200.049C1523.98 198.485 1521 197.702 1517.37 197.702Z" fill="#46475A"/>
<defs>
<linearGradient id="paint0_linear_1_14" x1="350.726" y1="324.5" x2="123.226" y2="135" gradientUnits="userSpaceOnUse">
<stop stop-color="#4242E6"/>
<stop offset="0.811877" stop-color="#1AAED3"/>
</linearGradient>
</defs>
</svg>
