<svg width="302" height="68" viewBox="0 0 302 68" fill="none" xmlns="http://www.w3.org/2000/svg">
<path d="M44.5187 28.8488C51.4653 30.1564 53.7625 34.5384 60.8637 36.0406C69.363 37.8385 80.2324 23.7002 65.1133 13.076C75.5741 14.3836 84.809 23.9453 83.2562 36.1223C80.8862 48.2176 71.733 54.4286 60.7819 54.5921C48.2781 53.3662 46.9705 48.5445 40.6777 44.7034C32.6853 40.8764 28.8718 41.776 23.0251 45.6024C24.0876 37.2665 30.2175 27.4457 44.5187 28.8488Z" fill="url(#paint0_linear_1_107)"/>
<path d="M110.93 38.3104C110.93 39.3827 110.67 40.3149 110.15 41.1068C109.63 41.8987 108.872 42.5091 107.873 42.9381C106.884 43.367 105.679 43.5815 104.26 43.5815C103.633 43.5815 103.019 43.5402 102.417 43.4577C101.823 43.3753 101.249 43.2556 100.697 43.0989C100.152 42.9339 99.6327 42.7318 99.1377 42.4926V38.929C99.9956 39.3085 100.887 39.6508 101.81 39.956C102.734 40.2613 103.65 40.4139 104.557 40.4139C105.184 40.4139 105.687 40.3314 106.067 40.1664C106.455 40.0014 106.735 39.7746 106.908 39.4859C107.082 39.1971 107.168 38.8672 107.168 38.496C107.168 38.0423 107.016 37.6546 106.71 37.3329C106.405 37.0112 105.984 36.7101 105.448 36.4296C104.92 36.1491 104.322 35.848 103.654 35.5263C103.233 35.3284 102.776 35.0891 102.281 34.8087C101.786 34.52 101.315 34.1694 100.87 33.7569C100.425 33.3445 100.057 32.8454 99.7688 32.2597C99.4883 31.6658 99.3481 30.9564 99.3481 30.1315C99.3481 29.0509 99.5955 28.127 100.09 27.3598C100.585 26.5927 101.291 26.007 102.206 25.6028C103.13 25.1903 104.219 24.9841 105.473 24.9841C106.413 24.9841 107.308 25.0955 108.158 25.3182C109.016 25.5327 109.911 25.8461 110.843 26.2586L109.606 29.2406C108.773 28.9024 108.026 28.6425 107.366 28.4611C106.706 28.2713 106.034 28.1765 105.349 28.1765C104.871 28.1765 104.462 28.2548 104.124 28.4116C103.786 28.5601 103.53 28.7745 103.357 29.055C103.184 29.3272 103.097 29.6448 103.097 30.0078C103.097 30.4367 103.221 30.7997 103.468 31.0966C103.724 31.3853 104.104 31.6658 104.607 31.938C105.118 32.2102 105.753 32.5278 106.512 32.8908C107.436 33.328 108.224 33.7858 108.876 34.2642C109.536 34.7344 110.043 35.2912 110.398 35.9347C110.752 36.5698 110.93 37.3617 110.93 38.3104ZM119.74 40.5747C120.152 40.5747 120.552 40.5335 120.94 40.451C121.336 40.3685 121.728 40.2654 122.115 40.1417V42.9504C121.711 43.1319 121.208 43.2804 120.606 43.3959C120.012 43.5196 119.36 43.5815 118.651 43.5815C117.826 43.5815 117.083 43.4495 116.424 43.1855C115.772 42.9133 115.256 42.4472 114.877 41.7873C114.506 41.1192 114.32 40.1911 114.32 39.0033V32.334H112.513V30.7378L114.592 29.4757L115.681 26.5555H118.094V29.5004H121.967V32.334H118.094V39.0033C118.094 39.5312 118.242 39.9272 118.539 40.1911C118.845 40.4469 119.245 40.5747 119.74 40.5747ZM137.619 29.5004V43.334H134.724L134.217 41.5646H134.019C133.722 42.0348 133.35 42.4184 132.905 42.7153C132.46 43.0123 131.969 43.2309 131.433 43.3711C130.896 43.5114 130.34 43.5815 129.762 43.5815C128.772 43.5815 127.91 43.4083 127.176 43.0618C126.442 42.7071 125.869 42.1585 125.456 41.4161C125.052 40.6737 124.85 39.7086 124.85 38.5207V29.5004H128.624V37.5803C128.624 38.5702 128.801 39.3168 129.156 39.8199C129.511 40.3231 130.076 40.5747 130.851 40.5747C131.618 40.5747 132.22 40.4015 132.658 40.055C133.095 39.7003 133.4 39.1848 133.573 38.5083C133.755 37.8237 133.845 36.9905 133.845 36.0089V29.5004H137.619ZM145.959 43.5815C144.416 43.5815 143.159 42.9793 142.185 41.775C141.22 40.5624 140.737 38.7847 140.737 36.442C140.737 34.0745 141.228 32.2845 142.21 31.0719C143.192 29.851 144.474 29.2406 146.058 29.2406C146.718 29.2406 147.3 29.3313 147.803 29.5128C148.306 29.6943 148.739 29.9376 149.102 30.2429C149.473 30.5481 149.787 30.8904 150.042 31.2699H150.166C150.117 31.0059 150.055 30.6182 149.98 30.1067C149.914 29.5871 149.881 29.055 149.881 28.5106V24.0808H153.668V43.334H150.772L150.042 41.5399H149.881C149.642 41.9193 149.341 42.2658 148.978 42.5792C148.623 42.8844 148.199 43.1278 147.704 43.3093C147.209 43.4907 146.627 43.5815 145.959 43.5815ZM147.283 40.5747C148.314 40.5747 149.04 40.2695 149.461 39.6591C149.89 39.0404 150.117 38.1124 150.141 36.875V36.4667C150.141 35.1221 149.935 34.0951 149.523 33.3857C149.11 32.6681 148.343 32.3092 147.221 32.3092C146.388 32.3092 145.736 32.6681 145.266 33.3857C144.796 34.1034 144.561 35.1386 144.561 36.4915C144.561 37.8443 144.796 38.8631 145.266 39.5477C145.745 40.2324 146.417 40.5747 147.283 40.5747ZM163.319 29.2406C164.598 29.2406 165.699 29.4881 166.623 29.983C167.547 30.4697 168.26 31.1791 168.763 32.1112C169.267 33.0434 169.518 34.1817 169.518 35.5263V37.3576H160.597C160.638 38.4217 160.956 39.259 161.55 39.8694C162.152 40.4716 162.985 40.7727 164.049 40.7727C164.932 40.7727 165.74 40.682 166.474 40.5005C167.208 40.319 167.963 40.0468 168.739 39.6838V42.604C168.054 42.9422 167.336 43.1897 166.586 43.3464C165.843 43.5031 164.94 43.5815 163.876 43.5815C162.49 43.5815 161.261 43.3258 160.189 42.8143C159.124 42.3029 158.287 41.5234 157.677 40.4757C157.075 39.4281 156.773 38.1083 156.773 36.5162C156.773 34.8994 157.046 33.5548 157.59 32.4825C158.143 31.4018 158.91 30.5934 159.892 30.0572C160.873 29.5128 162.016 29.2406 163.319 29.2406ZM163.344 31.9256C162.61 31.9256 161.999 32.1607 161.513 32.6309C161.034 33.1011 160.758 33.8394 160.684 34.8458H165.979C165.971 34.2849 165.868 33.7858 165.67 33.3486C165.48 32.9114 165.192 32.5649 164.804 32.3092C164.424 32.0535 163.938 31.9256 163.344 31.9256ZM180.444 29.2406C181.921 29.2406 183.108 29.6448 184.008 30.4532C184.907 31.2534 185.356 32.5402 185.356 34.3137V43.334H181.582V35.2541C181.582 34.2642 181.401 33.5177 181.038 33.0145C180.683 32.5113 180.122 32.2597 179.355 32.2597C178.2 32.2597 177.412 32.6516 176.992 33.4352C176.571 34.2189 176.361 35.349 176.361 36.8256V43.334H172.587V29.5004H175.47L175.977 31.2699H176.188C176.484 30.7914 176.852 30.4037 177.289 30.1067C177.734 29.8098 178.225 29.5912 178.761 29.4509C179.306 29.3107 179.867 29.2406 180.444 29.2406ZM195.069 40.5747C195.482 40.5747 195.882 40.5335 196.27 40.451C196.666 40.3685 197.057 40.2654 197.445 40.1417V42.9504C197.041 43.1319 196.538 43.2804 195.936 43.3959C195.342 43.5196 194.69 43.5815 193.981 43.5815C193.156 43.5815 192.413 43.4495 191.753 43.1855C191.102 42.9133 190.586 42.4472 190.207 41.7873C189.835 41.1192 189.65 40.1911 189.65 39.0033V32.334H187.843V30.7378L189.922 29.4757L191.011 26.5555H193.424V29.5004H197.297V32.334H193.424V39.0033C193.424 39.5312 193.572 39.9272 193.869 40.1911C194.174 40.4469 194.575 40.5747 195.069 40.5747ZM217.812 38.3104C217.812 39.3827 217.552 40.3149 217.032 41.1068C216.513 41.8987 215.754 42.5091 214.756 42.9381C213.766 43.367 212.561 43.5815 211.143 43.5815C210.516 43.5815 209.901 43.5402 209.299 43.4577C208.705 43.3753 208.132 43.2556 207.579 43.0989C207.035 42.9339 206.515 42.7318 206.02 42.4926V38.929C206.878 39.3085 207.769 39.6508 208.693 39.956C209.617 40.2613 210.532 40.4139 211.44 40.4139C212.067 40.4139 212.57 40.3314 212.949 40.1664C213.337 40.0014 213.617 39.7746 213.791 39.4859C213.964 39.1971 214.05 38.8672 214.05 38.496C214.05 38.0423 213.898 37.6546 213.593 37.3329C213.287 37.0112 212.867 36.7101 212.331 36.4296C211.803 36.1491 211.205 35.848 210.536 35.5263C210.116 35.3284 209.658 35.0891 209.163 34.8087C208.668 34.52 208.198 34.1694 207.752 33.7569C207.307 33.3445 206.94 32.8454 206.651 32.2597C206.371 31.6658 206.23 30.9564 206.23 30.1315C206.23 29.0509 206.478 28.127 206.973 27.3598C207.468 26.5927 208.173 26.007 209.089 25.6028C210.013 25.1903 211.101 24.9841 212.355 24.9841C213.296 24.9841 214.191 25.0955 215.04 25.3182C215.898 25.5327 216.793 25.8461 217.725 26.2586L216.488 29.2406C215.655 28.9024 214.908 28.6425 214.248 28.4611C213.588 28.2713 212.916 28.1765 212.232 28.1765C211.753 28.1765 211.345 28.2548 211.007 28.4116C210.668 28.5601 210.413 28.7745 210.239 29.055C210.066 29.3272 209.98 29.6448 209.98 30.0078C209.98 30.4367 210.103 30.7997 210.351 31.0966C210.606 31.3853 210.986 31.6658 211.489 31.938C212.001 32.2102 212.636 32.5278 213.395 32.8908C214.319 33.328 215.106 33.7858 215.758 34.2642C216.418 34.7344 216.925 35.2912 217.28 35.9347C217.635 36.5698 217.812 37.3617 217.812 38.3104ZM228.49 29.2406C230.049 29.2406 231.307 29.8469 232.264 31.0595C233.229 32.2721 233.712 34.0498 233.712 36.3925C233.712 37.9598 233.485 39.2796 233.031 40.352C232.578 41.4161 231.951 42.2204 231.151 42.7648C230.35 43.3093 229.431 43.5815 228.391 43.5815C227.723 43.5815 227.15 43.499 226.671 43.334C226.193 43.1608 225.785 42.9422 225.446 42.6782C225.108 42.406 224.815 42.1173 224.568 41.8121H224.37C224.436 42.142 224.485 42.4802 224.518 42.8267C224.551 43.1732 224.568 43.5114 224.568 43.8413V49.4218H220.794V29.5004H223.863L224.395 31.2946H224.568C224.815 30.9234 225.116 30.5811 225.471 30.2676C225.826 29.9541 226.251 29.7067 226.746 29.5252C227.249 29.3355 227.83 29.2406 228.49 29.2406ZM227.278 32.2597C226.618 32.2597 226.094 32.3958 225.706 32.6681C225.319 32.9403 225.034 33.3486 224.852 33.893C224.679 34.4375 224.584 35.1263 224.568 35.9594V36.3677C224.568 37.2586 224.65 38.0134 224.815 38.6321C224.989 39.2508 225.273 39.721 225.669 40.0427C226.073 40.3644 226.626 40.5252 227.327 40.5252C227.905 40.5252 228.379 40.3644 228.75 40.0427C229.121 39.721 229.398 39.2508 229.579 38.6321C229.769 38.0052 229.864 37.2421 229.864 36.343C229.864 34.9902 229.653 33.9714 229.233 33.2867C228.812 32.6021 228.16 32.2597 227.278 32.2597ZM242.497 29.2158C244.353 29.2158 245.776 29.6201 246.766 30.4285C247.756 31.2369 248.251 32.466 248.251 34.1158V43.334H245.615L244.885 41.4532H244.786C244.39 41.9482 243.986 42.3524 243.574 42.6658C243.161 42.9793 242.687 43.2103 242.151 43.3588C241.614 43.5072 240.963 43.5815 240.196 43.5815C239.379 43.5815 238.645 43.4248 237.993 43.1113C237.35 42.7978 236.842 42.3194 236.471 41.676C236.1 41.0243 235.914 40.1994 235.914 39.2013C235.914 37.7329 236.43 36.6523 237.461 35.9594C238.492 35.2582 240.039 34.8705 242.101 34.7963L244.502 34.7221V34.1158C244.502 33.3898 244.312 32.8578 243.932 32.5196C243.553 32.1814 243.025 32.0123 242.349 32.0123C241.68 32.0123 241.025 32.1071 240.381 32.2969C239.738 32.4866 239.094 32.7258 238.451 33.0145L237.201 30.4656C237.935 30.0779 238.756 29.7727 239.664 29.5499C240.579 29.3272 241.524 29.2158 242.497 29.2158ZM244.502 36.9245L243.042 36.974C241.821 37.007 240.971 37.2256 240.493 37.6298C240.022 38.034 239.787 38.5661 239.787 39.226C239.787 39.8034 239.956 40.2159 240.295 40.4634C240.633 40.7026 241.074 40.8222 241.619 40.8222C242.427 40.8222 243.108 40.583 243.66 40.1045C244.221 39.6261 244.502 38.9455 244.502 38.0629V36.9245ZM257.766 43.5815C256.397 43.5815 255.229 43.334 254.264 42.8391C253.299 42.3359 252.565 41.5605 252.062 40.5129C251.559 39.4652 251.307 38.1248 251.307 36.4915C251.307 34.8004 251.592 33.4228 252.161 32.3587C252.738 31.2863 253.534 30.4986 254.549 29.9954C255.572 29.4922 256.756 29.2406 258.1 29.2406C259.057 29.2406 259.882 29.3355 260.575 29.5252C261.276 29.7067 261.886 29.9253 262.406 30.181L261.292 33.1011C260.699 32.8619 260.146 32.6681 259.634 32.5196C259.123 32.3628 258.612 32.2845 258.1 32.2845C257.44 32.2845 256.892 32.4412 256.454 32.7547C256.017 33.0599 255.691 33.5218 255.477 34.1405C255.262 34.7592 255.155 35.5346 255.155 36.4667C255.155 37.3824 255.271 38.1413 255.502 38.7434C255.733 39.3456 256.067 39.7952 256.504 40.0922C256.941 40.3809 257.473 40.5252 258.1 40.5252C258.884 40.5252 259.581 40.4221 260.191 40.2159C260.802 40.0014 261.396 39.7045 261.973 39.325V42.5545C261.396 42.9174 260.789 43.1773 260.154 43.334C259.527 43.499 258.731 43.5815 257.766 43.5815ZM270.894 29.2406C272.173 29.2406 273.274 29.4881 274.198 29.983C275.122 30.4697 275.835 31.1791 276.339 32.1112C276.842 33.0434 277.093 34.1817 277.093 35.5263V37.3576H268.172C268.213 38.4217 268.531 39.259 269.125 39.8694C269.727 40.4716 270.56 40.7727 271.624 40.7727C272.507 40.7727 273.315 40.682 274.05 40.5005C274.784 40.319 275.538 40.0468 276.314 39.6838V42.604C275.629 42.9422 274.912 43.1897 274.161 43.3464C273.418 43.5031 272.515 43.5815 271.451 43.5815C270.065 43.5815 268.836 43.3258 267.764 42.8143C266.7 42.3029 265.862 41.5234 265.252 40.4757C264.65 39.4281 264.349 38.1083 264.349 36.5162C264.349 34.8994 264.621 33.5548 265.165 32.4825C265.718 31.4018 266.485 30.5934 267.467 30.0572C268.448 29.5128 269.591 29.2406 270.894 29.2406ZM270.919 31.9256C270.185 31.9256 269.574 32.1607 269.088 32.6309C268.609 33.1011 268.333 33.8394 268.259 34.8458H273.555C273.546 34.2849 273.443 33.7858 273.245 33.3486C273.056 32.9114 272.767 32.5649 272.379 32.3092C272 32.0535 271.513 31.9256 270.919 31.9256Z" fill="#46475A"/>
<defs>
<linearGradient id="paint0_linear_1_107" x1="80.2324" y1="53.0393" x2="43.0477" y2="22.0657" gradientUnits="userSpaceOnUse">
<stop stop-color="#4242E6"/>
<stop offset="0.811877" stop-color="#1AAED3"/>
</linearGradient>
</defs>
</svg>
