<svg width="41" height="41" viewBox="0 0 41 41" fill="none" xmlns="http://www.w3.org/2000/svg">
<path d="M17.7623 27.3385H14.0978V23.2007M12.86 24.4385L28.4572 8.84128C29.5345 7.76401 31.2811 7.76401 32.3584 8.84128C33.4356 9.91855 33.4356 11.6651 32.3584 12.7424L16.5311 28.5696C15.7917 29.3091 15.4221 29.6787 15.0128 29.9965C14.6493 30.2788 14.2629 30.5304 13.8576 30.7485C13.4012 30.994 12.9135 31.1822 11.9381 31.5589L8.58105 32.8553L9.66118 29.6144C10.0298 28.5085 10.2141 27.9555 10.4705 27.4391C10.6982 26.9805 10.9679 26.5441 11.2763 26.1352C11.6235 25.675 12.0356 25.2629 12.86 24.4385Z" stroke="#D3D5EE" stroke-width="2.69037" stroke-linecap="round" stroke-linejoin="round"/>
</svg>
