<svg width="41" height="41" viewBox="0 0 41 41" fill="none" xmlns="http://www.w3.org/2000/svg">
<path fill-rule="evenodd" clip-rule="evenodd" d="M19.79 6.59741C20.1844 6.48515 20.6004 6.48505 20.9947 6.59697C21.8332 6.8349 22.6793 7.05557 23.5282 7.27699C27.5147 8.31671 31.5635 9.37264 35.1655 12.3065L36.8242 13.6575C37.497 14.2055 37.8336 15.0167 37.8339 15.828V27.1678C37.8339 27.8388 37.2899 28.3828 36.6189 28.3828C35.9479 28.3828 35.4039 27.8388 35.4039 27.1678V19.1598L35.14 19.3751C33.8919 20.3936 32.5897 21.1846 31.2549 21.8266C31.3187 21.9742 31.354 22.1368 31.354 22.3079V29.2639C31.354 31.0998 30.2278 32.7477 28.5173 33.4146L22.0373 35.941C20.9967 36.3466 19.8416 36.3466 18.801 35.941L12.321 33.4146C10.6105 32.7477 9.4843 31.0998 9.4843 29.2639V22.3079C9.4843 22.1326 9.52143 21.9659 9.58827 21.8154C8.24313 21.1695 6.93078 20.3741 5.67289 19.3495L4.01413 17.9984C2.66848 16.9025 2.66778 14.7538 4.01226 13.6567L5.69829 12.2808C9.27431 9.36273 13.2944 8.3131 17.2513 7.27994C18.1021 7.05781 18.95 6.83642 19.79 6.59741ZM35.4039 15.829C35.4039 15.683 35.345 15.5867 35.2896 15.5416L33.6309 14.1906C30.139 11.7781 27.0277 10.714 23.0758 9.67558C22.2068 9.44724 21.3132 9.21243 20.3932 8.95215C19.469 9.21431 18.5722 9.45024 17.7003 9.67961C13.7802 10.7109 10.3643 11.6096 7.23461 14.1635L5.54857 15.5394C5.49318 15.5846 5.4343 15.6811 5.43436 15.827C5.43443 15.973 5.49338 16.0693 5.5487 16.1144L7.20748 17.4655C10.3637 20.0362 13.8107 20.9419 17.7626 21.9803C18.6315 22.2088 19.5251 22.4435 20.4451 22.7038C21.3693 22.4417 22.2659 22.2058 23.1378 21.9765C27.058 20.945 30.474 20.0464 33.6037 17.4925L35.2897 16.1166C35.3451 16.0715 35.4039 15.9747 35.4039 15.829ZM23.587 24.376C25.3687 23.9109 27.1631 23.4424 28.924 22.8014V29.2639C28.924 30.0985 28.4121 30.8475 27.6345 31.1506L21.1546 33.6769C20.6818 33.8613 20.1566 33.8613 19.6837 33.6769L13.2037 31.1506C12.4262 30.8475 11.9143 30.0985 11.9143 29.2639V22.7876C13.6943 23.4359 15.5085 23.9091 17.3101 24.379C18.159 24.6003 19.0051 24.8211 19.8436 25.059C20.2379 25.1709 20.654 25.1709 21.0484 25.0586C21.8883 24.8195 22.7362 24.5982 23.587 24.376Z" fill="#D3D5EE"/>
</svg>
